<svg width="1200" height="630" viewBox="0 0 1200 630" fill="none" xmlns="http://www.w3.org/2000/svg">
  <defs>
    <linearGradient id="bg" x1="0" y1="0" x2="1200" y2="630" gradientUnits="userSpaceOnUse">
      <stop offset="0%" stop-color="#0d5c2e"/><stop offset="100%" stop-color="#0a4a25"/>
    </linearGradient>
  </defs>
  <rect width="1200" height="630" fill="url(#bg)"/>
  <circle cx="1050" cy="80" r="200" fill="#ffffff" fill-opacity="0.03"/>
  <circle cx="150" cy="550" r="180" fill="#ffffff" fill-opacity="0.03"/>
  <rect x="80" y="60" width="1040" height="510" rx="32" fill="#ffffff" fill-opacity="0.04" stroke="#ffffff" stroke-opacity="0.08" stroke-width="1"/>
  <circle cx="160" cy="140" r="52" fill="#1a6b3a"/>
  <circle cx="160" cy="140" r="52" fill="none" stroke="#C9A84C" stroke-width="3"/>
  <rect x="148" y="112" width="24" height="56" rx="5" fill="#C9A84C"/>
  <rect x="132" y="128" width="56" height="24" rx="5" fill="#C9A84C"/>
  <text x="232" y="128" font-family="Georgia, serif" font-size="64" font-weight="900" fill="white" letter-spacing="6">AYYAD</text>
  <text x="234" y="163" font-family="Arial, sans-serif" font-size="22" fill="#C9A84C" letter-spacing="3" font-weight="600">FINANCEMENT MÉDICAL SOLIDAIRE</text>
  <rect x="120" y="210" width="960" height="1.5" fill="#ffffff" fill-opacity="0.12"/>
  <text x="600" y="310" font-family="Arial, sans-serif" font-size="54" font-weight="900" fill="white" text-anchor="middle">Aidez ceux qui</text>
  <text x="600" y="380" font-family="Arial, sans-serif" font-size="54" font-weight="900" fill="#a7f3d0" text-anchor="middle">en ont le plus besoin</text>
  <text x="600" y="448" font-family="Arial, sans-serif" font-size="26" fill="#ffffff" fill-opacity="0.75" text-anchor="middle">Dons 100% vérifiés · versés directement à l'hôpital</text>
  <rect x="120" y="490" width="960" height="1.5" fill="#ffffff" fill-opacity="0.12"/>
  <rect x="240" y="512" width="220" height="44" rx="22" fill="#ffffff" fill-opacity="0.08" stroke="#ffffff" stroke-opacity="0.15" stroke-width="1"/>
  <text x="350" y="540" font-family="Arial, sans-serif" font-size="18" fill="#a7f3d0" text-anchor="middle" font-weight="600">✓ 100% transparent</text>
  <rect x="490" y="512" width="220" height="44" rx="22" fill="#ffffff" fill-opacity="0.08" stroke="#ffffff" stroke-opacity="0.15" stroke-width="1"/>
  <text x="600" y="540" font-family="Arial, sans-serif" font-size="18" fill="#a7f3d0" text-anchor="middle" font-weight="600">✓ Zéro frais cachés</text>
  <rect x="740" y="512" width="220" height="44" rx="22" fill="#ffffff" fill-opacity="0.08" stroke="#ffffff" stroke-opacity="0.15" stroke-width="1"/>
  <text x="850" y="540" font-family="Arial, sans-serif" font-size="18" fill="#a7f3d0" text-anchor="middle" font-weight="600">✓ Dossiers vérifiés</text>
  <text x="600" y="600" font-family="Arial, sans-serif" font-size="20" fill="#ffffff" fill-opacity="0.45" text-anchor="middle">ayyadci.com</text>
</svg>
